<?xml version="1.0" encoding="UTF-8"?>
<svg id="Ebene_1" data-name="Ebene 1" xmlns="http://www.w3.org/2000/svg" version="1.1" viewBox="0 0 1281.26 401.1">
  <defs>
    <style>
      .cls-1 {
        fill: #ff4554;
        stroke-width: 0px;
      }
    </style>
  </defs>
  <polygon class="cls-1" points="516.64 211.17 494.41 238.6 512.82 261.31 525.31 261.31 541.31 261.31 557.27 261.31 516.64 211.17"/>
  <path class="cls-1" d="M428.19,223.67h-36.83l-.3.38c-4.89,6.17-10.15,10.27-19.91,10.27-13.04,0-23.12-7.79-25.44-19.51h84.88l.13-.85c.06-.36.11-.71.17-1.04.36-2.23.67-4.15.67-8.12,0-17.14-6.15-33.01-17.3-44.71-11.3-11.84-26.82-18.36-43.71-18.36s-32.08,6.72-43.52,18.93c-10.86,11.6-17.09,27.31-17.09,43.11,0,33.76,27.46,61.22,61.22,61.22,12.04,0,23.44-3.61,32.95-10.43,9.88-6.73,18.01-16.93,23.48-29.5l.61-1.4ZM346.19,189.87c3.61-13.75,17.01-17.46,24.55-17.46s20.93,3.71,24.55,17.46h-49.09Z"/>
  <polygon class="cls-1" points="694.84 145.62 694.06 145.62 693.87 146.39 677.6 214.04 659.55 146.37 659.35 145.62 658.59 145.62 629.91 145.62 629.14 145.62 628.94 146.37 611.1 214.02 594.83 146.39 594.64 145.62 593.85 145.62 558.62 145.62 557.27 145.62 557.67 146.92 592.49 260.61 592.71 261.31 593.44 261.31 624.99 261.31 625.76 261.31 625.96 260.56 644.25 189.97 662.53 260.56 662.73 261.31 663.5 261.31 695.05 261.31 695.79 261.31 696 260.61 730.83 146.92 731.22 145.62 729.87 145.62 694.84 145.62"/>
  <path class="cls-1" d="M823.09,145.62h-1v10.4c-3.78-5.09-13.28-14.29-32.6-14.29-15.49,0-29.93,5.91-40.65,16.63-11.45,11.45-17.5,27.01-17.5,45,0,16.68,5.44,32.05,15.3,43.29,10.65,12.13,25.47,18.55,42.85,18.55,7.12,0,13.99-1.39,19.84-4.03,5.49-2.47,9.85-5.98,12.75-10.22v10.36h36v-115.69h-35ZM822.1,203.37c0,11.29-7.32,28.09-27.47,28.09s-27.27-18.65-27.27-27.68c0-6.83,2.37-13.7,6.51-18.86,3.45-4.3,9.82-9.43,20.55-9.43,13.75,0,27.68,9.58,27.68,27.88Z"/>
  <path class="cls-1" d="M1049.36,160.09c-11.3-11.84-26.82-18.36-43.71-18.36s-32.08,6.72-43.52,18.93c-10.86,11.6-17.09,27.31-17.09,43.11,0,33.76,27.46,61.22,61.22,61.22,12.04,0,23.44-3.61,32.95-10.43,9.88-6.73,18.01-16.93,23.48-29.5l.61-1.4h-36.83l-.3.38c-4.89,6.17-10.15,10.27-19.91,10.27-13.04,0-23.12-7.79-25.44-19.51h84.88l.13-.85c.06-.36.11-.7.16-1.04.36-2.23.67-4.15.67-8.12,0-17.14-6.15-33.01-17.3-44.71ZM981.3,189.87c3.61-13.75,17.01-17.46,24.55-17.46s20.94,3.71,24.55,17.46h-49.09Z"/>
  <path class="cls-1" d="M937.71,141.9c-5.5,0-10.73.93-15.68,2.79-4.96,1.86-9.37,4.45-13.24,7.78l-.11-6.85h-35.99v115.69h36.1v-64.47c0-3.64.87-6.95,2.61-9.93,1.74-2.98,4.1-5.34,7.09-7.09,2.98-1.74,6.29-2.61,9.93-2.61,2.86,0,5.65.62,8.36,1.86l13.71-35.31c-4.34-1.24-8.6-1.86-12.78-1.86Z"/>
  <polygon class="cls-1" points="556.15 145.62 541.3 145.62 541.3 145.62 541.3 145.62 541.3 145.62 525.31 145.62 525.32 145.62 512.8 145.62 494.39 168.33 516.64 195.76 516.64 195.76 557.27 145.62 556.15 145.62"/>
  <polygon class="cls-1" points="486.46 173.94 463.52 145.62 418.86 145.62 418.86 145.62 441.8 173.94 465.73 203.47 441.8 233 418.86 261.31 462.4 261.31 463.52 261.31 486.46 233 510.4 203.47 486.46 173.94"/>
  <polygon class="cls-1" points="293.63 227.32 254.41 227.32 254.41 145.62 214.02 145.62 214.02 227.32 214.02 260.31 214.02 261.31 214.02 261.31 215.02 261.31 249.02 261.31 250.02 261.31 250.02 261.31 293.63 261.31 294.15 261.31 306.93 261.31 306.93 227.32 294.15 227.32 293.63 227.32"/>
</svg>