<?xml version="1.0" encoding="UTF-8"?>
<svg xmlns="http://www.w3.org/2000/svg"
     viewBox="98.4 90 989.6 185">

<style>
.cls-1{fill:#ff4554;}
</style>

<g class="cls-1">

<!-- L (Original) -->
<path d="M103.4 145.62H139.8V231.2H198.6V261.31H103.4Z"/>

<!-- e (Original) -->
<path d="M248.7 203.1C248.7 170.4 273.2 145.6 305.8 145.6C338.4 145.6 362.9 170.4 362.9 203.1C362.9 206.4 362.5 210.2 361.7 213.9H278.2C282.5 225.2 293.1 233.3 306 233.3C318.2 233.3 327.8 226.7 332.3 218.2H362.2C352.6 245.4 329.6 265.1 305.8 265.1C273.2 265.1 248.7 240.3 248.7 203.1Z"/>

<!-- x (Original) -->
<path d="M397.2 145.62H437.4L469.5 194.3L501.8 145.62H542.1L489.6 220.1L542.3 261.31H501.8L469.5 211.8L437.4 261.31H397.2L449.7 220.1Z"/>

<!-- i (rekonstruiert aus L-Stamm + e-Rundung) -->
<path d="M580 145.62H615V261.31H580Z"/>
<path d="M580 120C580 107 592 95 605 95C618 95 630 107 630 120C630 133 618 145 605 145C592 145 580 133 580 120Z"/>

<!-- b (a-Geometrie adaptiert) -->
<path d="M660 145.62H695V185
C705 170 725 160 745 160
C777 160 802 185 802 215
C802 245 777 270 745 270
C725 270 705 260 695 245
V261.31H660Z
M695 215
C695 232 710 245 730 245
C750 245 765 232 765 215
C765 198 750 185 730 185
C710 185 695 198 695 215Z"/>

<!-- a (Original) -->
<path d="M850 165C883 165 908 185 908 215V261.31H873V245
C863 255 848 265 828 265
C803 265 783 250 783 230
C783 205 808 195 838 195H873
C868 180 858 170 843 170
C828 170 818 178 813 188H783
C793 170 813 165 850 165Z"/>

<!-- n (r-Schulter exakt erweitert) -->
<path d="M948 165H983V185
C993 175 1008 165 1028 165
C1058 165 1083 185 1083 215
V261.31H1048V220
C1048 200 1033 190 1013 190
C993 190 983 200 983 220
V261.31H948Z"/>

</g>
</svg>